<svg xmlns="http://www.w3.org/2000/svg" viewBox="0 0 365 330.99"><defs><style>.cls-11{isolation:isolate;}.cls-21{fill:#4caeaf;}.cls-21,.cls-4{fill-rule:evenodd;}.cls-3{fill:#00646d;}.cls-4{fill:#63e4ce;}</style></defs><title>frame for face</title><g id="background_tile" class="cls-11"><g id="background_tile-2" ><path class="cls-21" d="M180.63,27,0,207.63V217L190,27Zm-33.45,0L0,174.18v9.36L156.55,27Zm-33.45,0L0,140.73v9.36L123.1,27ZM13.38,27,0,40.38v9.36L22.75,27Zm66.9,0L0,107.28v9.37L89.65,27ZM46.39,27,0,73.39v9.36L55.75,27ZM179.07,250,223,206.07v-9.36L169.7,250ZM71.36,250,223,98.36V89L62,250Zm-35.68,0L223,62.68V53.31L26.31,250Zm71.59,0L223,134.26v-9.37L97.89,250Zm107.48,0,8.25-8.25v-9.37L205.38,250Zm-71.8,0L223,169.94v-9.36L133.58,250ZM213.63,27,0,240.64V250L223,27Z" transform="translate(0 -16.01)"/></g></g><g id="Face_image" class="cls-11"><g id="Face_image-2" ><path class="cls-3" d="M210.54,29.64A147,147,0,0,1,314.48,280.59,147,147,0,1,1,106.6,72.7,146,146,0,0,1,210.54,29.64m0-3a150,150,0,1,0,150,150,150,150,0,0,0-150-150Z" transform="translate(0 -16.01)"/></g></g><g id="frame_for_face" class="cls-11"><g id="frame_for_face-2" ><path class="cls-4" d="M103,193.59c2.6,2.41.9,4.43,0,7.66C110,203.22,106.8,192.68,103,193.59Zm-5,27.48c3.94-.63,1.68-5.94,0-7.21-.1.54-.5.28-.9,0-.26.94-1.11,1.29-.9,2.7.27.78,2.14,0,2.25.9C97.91,218.73,97.37,219.69,98,221.07ZM87.67,200.8c-2.07.48-3.78,1.33-4.5,3.15.8.4,1.14,1.26,2.7.9C86.42,203.45,87.91,203,87.67,200.8Zm23.87-12.16c-2.58,1.17-6.24,1.63-8.55-.45,2.43.31,3.16-2.92,2.25-4.51-2.63,1.27-4.61,3-3.6,6.76a9.25,9.25,0,0,0,4.05.9c-.84,2.44,2.46,2.08.45,3.16,1.16,0,.65,1.76,1.8,1.8.73-1.16,1.62-2.16,2.25-2.25C109.33,192.71,112.13,191.19,111.54,188.63Zm-4.05,4.51a2,2,0,0,1-.9-1.8c.77-.09,1.16.77,1.35,0C109.32,191.78,107.42,192.54,107.49,193.14Zm-23,15.32c-1.44-.27-1.4.85-2.25,0a4,4,0,0,0-.9-3.15c-.54,2.13-1.66.91-3.15,0-1.65,4.53,5.27,6.94,1.35,11.26.95,4.31,2.41,8.11,5.41,10.36,1.61-1.16.29-3.18,0-5C89.18,218.63,85.38,211.67,84.52,208.46Zm-22.07,85.6c-1,2.09.92,3.82,2.7,4.5C66.28,296.64,65.69,293.08,62.46,294.06Zm-5.86-7.21c-.8.1-2.25-.45-1.8.9.53.07,1.28-.08,1.35.45-.27,0-.53.07-.45.45C57.05,289.11,56.5,287.65,56.6,286.85Zm-4.05-3.15c.06,1.3-.24,2.95.45,3.6h1.35C53.75,286.1,53.86,284.19,52.55,283.7Zm23-172.55c-5.77,4.93-10.56,12.09-10.81,21.18-.39,1.11-1.67,1.33-2.25,2.25-3.1,11.86-7.94,22.79-6.75,36h1.35c1.5-7.76,4-14.82,4.05-23a9,9,0,0,0,2.25-1.8C64.84,131.72,74.22,124.07,75.51,111.14ZM54.8,252.61c.82-2.09-2.38-7.18-7.2-5C43.7,253.49,52.84,257.61,54.8,252.61Zm42.78-4.5c-.63-7.61-4-11.34-6.75-17.57-1.46-.71-2.34.65-4.05.9-2.1,6.64,2.33,7.76,4.5,12.16C95.47,243,95.49,246.59,97.58,248.11Zm-7.2-54.52c2.14.24,1.21-2.54.45-3.15C91.19,192,90.15,192.17,90.38,193.59Zm5,27a2.21,2.21,0,0,0-.9-2.25c-.08.52-.71.49-1.35.45v1.35A2.93,2.93,0,0,0,95.33,220.62Zm-.45-30.19c-.88.14-.89-.61-1.35-.9,1,1.31-.82,2.59.9,3.15C94.06,191.42,95.07,191.52,94.88,190.44Zm-.45,24.33c-.4.8-1.83.57-1.35,2.25C94.2,217.19,95.06,214.85,94.43,214.76ZM271.87,112.49h-1.35a1.63,1.63,0,0,0,1.35,2.71A2.21,2.21,0,0,0,271.87,112.49ZM260.16,91.32c.46,1,.9,2.1,2.25,2.25A2.46,2.46,0,0,0,260.16,91.32Zm-8.56-2.7c-.11-1.84-1.88-2-3.6-2.25v1.8A4.21,4.21,0,0,0,251.6,88.62Zm47.74,179.31c-2.29,0-2.53,2.06-2.25,3.15C298.7,277.55,305.88,267.94,299.34,267.93Zm15.31-80.19h2.25C317.59,186.35,314,186.35,314.65,187.73ZM122.8,110.24c-.52-.08-.49-.71-.45-1.35-2,.57-2,.13-3.6-.45,2.28,3.21-1.86,4.05-.45,7.21,3.19.78,3.67-3.52,3.15-5,0,.59-1.25.57-1.35,0C121.62,110.17,122,111,122.8,110.24ZM365,70.72V67.83c-4.34-3.27-6.49-8.72-12.07-10.75-.15-3.25-4.06-3.78-3.6-6.31-2.54-.72-4.23-2.21-4.05-4.51C335.1,41.11,327.4,31.13,315.1,29.6c-5.88-6.43-18.3-6.32-26.57-10.36-1.38-.33-1.64.46-2.7.45-.51-.84-1.75-1-2.25-1.8-3.77,1.06-5.52-.89-9-1.35-12.05-1.59-28.73.86-38.28,1.8a106.51,106.51,0,0,0-19.65,3.85l-.62-.69c-1.11.06-2.17.07-2.7-.45-10,5.3-21.74,8.88-30.63,15.32-5.93,1.83-11,6.56-17.11,6.76a4,4,0,0,0,.9-4.06c-2.77-.69-5.72,1.59-8.56,2.25-.31,1.81.43,2.57.45,4.06-4.53.07-7.14,3.39-10.81,5.41-4.65,2.55-12.12,2.43-14.41,7.21,5,1.67,10.9-3.1,15.31-5,1.65.93-.26,2.64.9,4.06,6.95,0,8.84-7,14.41-2.7,1.78-.62,2.39-2.42,3.15-4.06,5.55-.8,10.16-5.88,18-4.51,3-1.79,6.67-2.35,11.26-2.25,3.08.06,8,.09,11.26.9,3,.74,6.24,2.78,9.46,4.05,3.56,1.41,6.71,3.75,10.81,4.06,2.3.17,4.88-.63,6.76,0,4.27,1.43,8.08,1.69,11.41,2.58l-1-1.11c3.46.68,6.72,1.57,8.94,3.49-.15,1.5-1.84,1.46-1.8,3.15C261.67,64,266.76,71.8,271,80.51c-1.38.93-3.22-.92-3.6,1.35,1.68,1.63,3.73.38,6.31,1.35,9.62,13.36,18,27.91,39.63,29.29,5.15,3.71,8.69,9,13.06,13.52,2.74,9.41,7.71,15.28,8.56,25.68-1.68,14.28,4.19,31.36,1.35,44.6,1.74,3.61-.85,7.69-.45,12.61-2.32,4-2.4,8.87-3.6,14-1.06,4.51-3.5,8.42.45,10.36,1.78-1.38,1.81-4.5,3.6-5.86,4.89-22.17,11-50.48,4.5-75.24-2.37-9-8.26-16.92-7.2-27-2-4-2.14-7.49-3.6-11.26-1.84-4.75-5.43-9.44-7.21-14-1.29-3.3-1.43-7-3.15-9.46C318,88.18,315,87.09,313.3,85c-1.2-6.61-8.39-7.23-8.56-14.87a4.05,4.05,0,0,1-1.8-1.8c-9.52-1.13-12.61-8.71-21.62-10.36-1.25-1-2.35-2.15-3.6-3.16-6.76-.88-12.06-4.94-18.47-3.6-1.85-.85-3.07-2.33-4.51-3.61,2.25-1.46,5.54.8,7.66-.45,2,2.08,7.3,3.14,9.91,3.15,2.88,3.46,7.87,3.12,11.71,5s7.3,4.73,11.71,5.41c3.69,3.67,8.93,5.78,13.51,8.56,1.65-.9,1.72-1.35,1.35-3.6,2.1-.6,3.44-2,6.75-1.35,7.65-5,28.27-7.84,36-2.25-.65,3.75-4.65,4.6-6.75,7.21-1.82,2.26-2.11,5.15-4.5,7.21-.87.75-3.61,1.43-4.51,2.7-3.21-1-7.9-2.5-11.26-.45-.34-2.12-2.52-2-4.5-1.35-.62-.58-.45-2-.45-3.15-2.22-.58-3.51-2-5.85-.45.25,5.08,3.65,5.86,6.31,9,7.68,9.14,12.22,21.48,20.72,28.83,3.56,9.05,9.33,15.9,10.81,27,3,3.27,3.15,9.46,7.66,11.26-.84-2.3-.31-3.45,1.8-4.5-.82-.22-2.26-2.35,0-1.8,0-2.35-2.19-2.61-2.25-5,0-1.16,1.68-.72,2.25-1.35-2-3.29-.1-4.38,2.16-4v-31c-2.74-2.83-4.57-6-7.11-10-4.29-6.69-10.1-10.4-8.11-21.17C354.13,66.87,360.26,68,365,70.72ZM252.05,58.43a13.23,13.23,0,0,0-6.16-3.28l5.71,6.43C251.61,60.39,251.43,59,252.05,58.43ZM149.37,203.5c-4.41,3.06-.58,10.94,5,7.66C156.81,208,155.14,202.3,149.37,203.5ZM125.5,106.64c.39-.45,1.25-3.9-.45-3.61C125.95,104.09,124.21,105.57,125.5,106.64Zm-2.25-21.18c0,1.12-.84,1.4,0,2.25,1.13.08,1.41-.69,1.8-1.35C124.16,86.36,124.48,85.14,123.25,85.46Zm-63.5,21.62C67.7,100,77,94.36,84.52,86.82c-.33-1.38.78-1.33.45-2.7,7.25-.93,11-5,16.21-6.31-.25,1.39-2.12,1.18-2.25,2.7,1.17.18,1.36,1.34,2.7,1.35.24-2.16,2.92-1.88,3.15-4.05-.38-1-2.87.17-3.15-.9,2-.67,2.76-5,5.41-3.61.05,1.58-3.66,1.71-1.8,3.61,3.1-.22,6.36-3.33,9.46-5,.16,2.84,1.51,4.5,2.25,6.76-3.07,3.24-4.43,8.19-9,9.91-2.2,9-12.71,14.21-11.71,23.43H94c-2.28,4.13-1.77,8.34-5.41,10.81-3-4-10.7,2.09-5.4,5.41,4.28-1.43,3,2.67,4.5,4.06-1,.16-2.11.29-1.8,1.8,1.29.58,1.34,1.42,2.7,2.7,2.18-1.88-.1-5,1.8-7.66.11.85.74-.26.9.45-1.39,1.6.14,3.3-1.35,5.86,4.46,0,6.11,2.13,9.46,3.6.42-1.08,1.81-1.19,1.35-3.15-.84,0-1-.35-.45-.9-2.44.79-3.29,1.9-4.05-.45a6.75,6.75,0,0,1,3.15,0c0-2.37,3.57-2.88,1.35-5,0,3.15-3.39.19-4.51,2.25.19-1.09-.82-1-.45-2.25-2.2.06-1.06,3.45-3.15,3.6.66-2.54,0-3.45-.9-5.41.67-.24,1.13-.67,1.8-.9-.44,1.24,2.52,1.32,2.25.9-1.8-1.12-.3-.92.45-1.35-1-.06-.19-1.91-.45-2.7-2.22-.43-.65,2.21-1.35,2.25-.09-.54-.5-.28-.9,0-.05-2-.42-3.12,0-4.05.79.39,1.39,1.51,1.8,0a4.1,4.1,0,0,1-2.25-3.16c.59-.46,1.66-.44,2.25-.9.24.65-.53,2.33.45,2.25,1.16-1.84-1.87-3.06.9-3.6,0,1.37-.26,3,1.35,2.7.2-1-1.39-2.45-.45-2.7.7.5.94,1.46,2.25,1.35,1-4.48-1.8-11,3.6-13.52a7.77,7.77,0,0,1-1.35-1.8c1.23-.57,1.8-1.81,2.7-2.7-.4,1.45,1.49.62,1.35,1.8-1.76-.59-1.59,1.65-.45.45-1.2,2,.07,4.88.9,6.31a2.78,2.78,0,0,0-1.8,3.6c2.08-.58,3.12-2.28,2.25-3.6a1.23,1.23,0,0,0,1.8,0c1-4.54,4.85-8.24,9-8.11-2.57-2.15,3.55-4.39,4.05-7.66-.37,2.11,1.92,2.86,2.7,1.35-1.07-.28.07-2.77-.9-3.15-2.84-1.31-1.79,2.07-4.5.9-1.82,4.72-6.48,3.46-9,5.86.48-1.68-.95-1.45-1.35-2.25a41.77,41.77,0,0,1,5.41-7.21c-.13.14.63.75.9.45,1.37-1.51,1.45-5.69,5-6.31,2.21,2.21,5.48,2.16,6.31,2.7a9.65,9.65,0,0,0-.87,3.16c2.61,0,.5,2.12,2.22,2.7-.51-2.31,2.8-.8,2.7-2.7-.53-.08-.49-.71-.45-1.35-1.66.31-2-.71-1.8-2.25.7.85,1.75-.65,2.7.45.66-1.14.86-2.75,2.7-2.7-1.25-3.72,2.85-8.24,5.41-6.76-.68-1.24,1.08,1.58,2.25,1.35.86-3.75,7.13-2.24,5.4-7.66a8.48,8.48,0,0,1,3.6-.45c1.21-3.14,4.23-4.48,5.85-7.21-1.57-.61-1.37-1.28-1.8-2.25-1.91,1.21-4.67-2.51-6.31-.45.12-1.62.11-3.11-1.8-2.7-1,.95-.09,2,.45,2.7-4.63,1.8-8.46,0-13.51,1.8-.14-2.66-2.6-1.83-4.05-2.25a3.22,3.22,0,0,1-.9,1.35c-5.43,1.65-12.12,7-20.27,8.56-2.52,2.73-6.69,3.82-10.81,5-9.74,7.85-23,13-30.17,21.62-1.68,2-2.82,5.95-5.86,6.31.07,1.43-1.19,1.51-.9,3.15-2.73.51-4.87,3.73-4.05,6.31C58.35,110.49,59.24,109,59.75,107.09Zm79.71-42.8c-.56,1.59-1.74,3.25-2.7,3.15-.51-.09-.25-.45,0-.45C135.3,65.11,136.47,63.94,139.46,64.29Zm-18,8.56c.44-1.35,2.84-3.74.9-6.31,4,1.5,8.14-1.86,12.16-1.35-.14,1.06-.71,1.69-.45,3.16-3.08,1.47-10.5,4.67-13.51,5C120.53,72.15,120.89,72.75,121.45,72.85Zm122,15.77a2.11,2.11,0,0,1-1.35-.45,1.69,1.69,0,0,0,0,2.25C243.33,90.56,243.62,89.79,243.49,88.62Zm-68.9-28.38c.24-1.74-1.15-1.85-1.35-3.15-1.76,0-3.45.06-4.33.92l-.17,0c0,.08,0,.13,0,.21a2.17,2.17,0,0,0-.46,1.15C169.64,61.29,172.4,61.32,174.59,60.23ZM125.53,88.17h0C125.47,89,125.46,88.77,125.53,88.17ZM79.12,201.7c1.62.59.14,1.48.9,2.71,1.06.14,1.69.71,3.15.45C81.7,203.32,82,198.71,85,199c-.78-3,.84,0,1.35-2.25,1,1.51,2.47,1.42,1.35,3.6,1.89.24,2.52-.79,4.05-.9,0,.84.35,1,.9.45-.72.83.42,1.53-.9,2.26-1.68.48-1.29-1.12-2.7-.9-.09,2.54,1,3.53.9,5-7.32.72,1.21,10.2.45,2.7,2.15-.4,2-3.1,4.06-3.6-.5-2.44,2.69-6.67,5.4-5.86-1.1-2.15-.06-5.39-2.7-6.76-.75,3-4.12,1.25-5-.45.1.85-.51,1-.45,1.8.75.6,2.87-.17,2.7,1.35-2-1.45-1.55,1.5-2.7,1.35-1.35-.3.43-1,0-1.8-1.5,0-1.2,1.81-2.25,2.25-1-2-2.86-3.15-5-4.05.26,1.24,1.42,1.58,1.35,3.15-1.06.58-.84-.06-2.25.45a17.38,17.38,0,0,1,.45-6.76c-1.39-.5-1.8-2-2.7-1.8.67.24-.22-3.6,1.35-2.25.13-.89-.61-.89-.9-1.35,2.55-1.34,7.41-.88,4.51.45-2.1,1-1.69,3.79,0,5,6.94,2,5-15,11.71-10.36,0-.74,1.25-.25,1.35-.9-.51-.09-.7-.5-.9-.9,1.46.56.35-1.46,1.8-.9.56,1.46-1.46.34-.9,1.8,1.32-.12,1.38,1,2.7.9-.06-.81.45-1.05,1.35-.9-.91-2.63,2.12-2.95,4.05-3.15v-1.8c-1.59.24-2,1.32-3.6.45.14,1.23-2.08,2.37-2.25,1.8,1-4.51,6.93-1.29,7.66-5.86.08.67,1.09.41,1.8.45.11-3.06,4.45-8,1.35-9.91a10.77,10.77,0,0,1-5,4.05c.63.12.51,1,.9,1.35-2.3,1.83-7.45,3-8.56,2.25.78-1,1.67-3.76-.45-4.06a3,3,0,0,1-1.8,4.06c-.79-2.49.62-1.74,0-4.06-.85-.1-1,.51-1.8.45.34,1.53-.09,3.23.9,5-1.86.86-3.55,4.25-6.76,2.25,2-1.05.23-3.43-1.35-3.6a4.49,4.49,0,0,1-2.7,1.35c0-.45-.36-.54-.45-.9-.48-1.68,1.12-1.28.9-2.7a2.93,2.93,0,0,0-2.25-.45c.59,2.92-5.6,1.9-7.66,4.05,2.25.6,3.1,2.61,5.4,3.15,1.21-1.93,4.13-3.55,6.31.9-1.45,1.56-2.15,3.86-4.51,4.51,0-2.07-1.28-2.92-1.8-4.51-2.78.92-1.75,1.06-5,.45,0,1.48-.76,2.24-.45,4.06-1.13-.08-1.41.69-1.8,1.35.12,7.7-.32,16.45,3.15,23.43C78.85,203.23,77.52,201,79.12,201.7Zm29.27-73c-1.52-.17-1.92.78-2.7,1.35C106.81,129.84,108.41,130.08,108.39,128.71Zm3.6-19.37c-.56-1.9-2.68-.4-2.7.9C110,111,112.12,110.78,112,109.34Zm2.25,6.31c0,.55.13,1.07.9.9a16.34,16.34,0,0,1-2.7-4.5c-.89,1.61.21,2.4,0,4.5C113.67,116.88,113.35,115.65,114.25,115.65Zm-8.56,5.86c1.21-.8.87,2,1.35.45-1-.45,1-2.46-.45-3.16C105.67,120,106.16,120.51,105.69,121.5Zm.9-5v1.8h1.8a7.51,7.51,0,0,0,0,4.06c1.76-1.83,2.4,1,4.5,1.35v-3.15c-2.87,0-.61-1.53-1.35-2.25-.92.58-1.14,1.87-2.25,2.25A4.21,4.21,0,0,0,106.59,116.55ZM95.78,158.9v1.35c1.48,0,1.72,1.28,3.6.9.06-1.11.07-2.17-.45-2.7C97.87,158.59,97.24,159.16,95.78,158.9Zm13.06-44.16c.56.25.88,3,1.8,1.35-1.08-.9.82-.12.9.45C112.9,115.44,109.46,113.79,108.84,114.75Zm-4.05,17.12c.36-1.56-.67-1.73-.45-3.16-1.42-.22-1.76.64-2.7.9-.13,1.78,1.93,1.38,1.8,3.15-.79-.84-1.31.2-2.25.45.07,4.82,6.42,1.83,6.31-1.35C106.34,131.42,105.31,130.58,104.79,131.87Zm259,56.76c-.06-1.17-1.83-2.94-2.25-2.25-1.88,4-4.91,14.35-2.25,19.82-1.44.27-1.39-.85-2.25,0,2,3.52-1.09,8.05-3.6,9.91.24,1.26.66,2.34.9,3.6-2.2-.08-2.11,4-1.8,5-3.56,1.69-7.54,3-7.21,8.56-1.63-.13-1.22,1.78-2.7,1.8-3.86,13.11-15.77,18.17-21.17,29.73a5.94,5.94,0,0,0-4.5,5c-6.32,2.68-10,10.46-15.76,12.16,7.32-6,13.69-13,18-22.08a4,4,0,0,0-1.8-1.8c-4.43,6.08-10.76,10.26-13.51,18-2.6,1.6-3.26,5.15-6.75,5.86-.13,1.67-.51,3.1-1.8,3.6-12.34,3.08-17.46,10.66-28.37,14.87,2.31-2.17,2.82-5.84,5-8.11,1.07-1.13,3.1-1.55,4.06-2.7.45-.55.28-2.45.9-3.15a17,17,0,0,0,2.25-3.15c2.4-3.91,6.88-8.24,9.46-12.61,3.19-5.43,6.12-10.62,8.11-17.12-.93-.12-.11-2-1.35-1.8-7.38,6-8.39,18.34-15.76,24.33v2.7c-1.74-.39-1.6,1.1-2.7,1.35-1.09,5.67-7.38,9.86-10.81,13.51s-4.15,8.41-9.91,8.11c-1.44-.66-2.5-1.7-5-1.35-.62.28-.07,1.73-.9,1.8-.21,0-.41,0-.62,0l2-2.7c-3.18,4.19-6.75-.84-10.81.9-15.14-4.12-27.25-9.05-44.59-11.94l-1.89-.62a22.57,22.57,0,0,0-8.46-3.66c-2.43,3.41,2.7,4.89,3.6,7.66,1,3-.31,6.4-.45,9-4.7-.41-6.25,5.15-8.73,8.55H180c0,.09.06.17.09.26-.17.23-.35.44-.54.64-.18,1.08.82,1,.45,2.25,3.74,1,7.68,3.87,9,5.86-8.9,2.51-18.37-1-26.14-.71l-.88-.19a1,1,0,0,1-.07.23c-.59,0-1.16.11-1.73.22-3.81-4.58-10.89-4.56-14-9-15.45-3.88-25.43-15.81-40.08-21.17-3.09-3.36-7.07-5.84-11.26-8.11-1.67-1.83-3.47-5.26-6.75-4.06,1.46,6.38,6.36,11.21,10.81,15.32,2.88,2.66,8.47,8.35,13.06,11.26,1.09.7,2.5.35,3.6.9.72.36.77,1.42,1.35,1.8,12.1,8.07,27.81,11.79,41.43,15.32a7.77,7.77,0,0,1,1.8-1.35c-.11,1.32.85,1.55,1.35,2.25,9.08,3.11,17.85,3.45,27.47,5.86,10-.06,25-.3,36-2.25-.77,2.55-2.84.48-4.06,3.6,4.84,3.72,13-1.94,13.51-5.41l.71-1c11.75-1.9,19.1-6.4,29.92-8,.65-.7.6-2.1,1.35-2.7,9.13-.65,16.7-3.94,24.32-7.66.78-.27,0-2.14.9-2.25.8.4,1.14,1.26,2.7.9.67-.53.7-1.7,1.35-2.25,2.77-.6,6.09-2.32,6.75-3.6,3.22.38,3.89-3.22,6.3-2.25,10.42-8.65,24.41-11.86,33.78-22.08,7.13-3.53,11-10.29,17.56-14.42.31-1.81-.43-2.57-.45-4.06,3.62-.53.34-5.35,4.05-5.41,1,1.26-.91,3.52,1.26,4v-13c-1.81-2-3.51-3.9-5.76-6.3-.07,1-1.14,1-2.25.9-1.31-1.7-.08-4.41.9-6.31,3.51.54,5.44,2.65,7.11,5v-4.12h-.36c-.52-3.24-5.94-4.3-3.15-8.11-1.07-.73-2.36-1.24-2.7-2.71,1-4.76,4.14-9.69,1.8-14.87,2-1.23,2-4.52,4.41-5.37v-.56C364.42,193.8,362.41,191.27,363.74,188.63Zm-259.4-34.24c-.76,1.57,1.24,3.71,3.15,4.05-1.24-1.66-1.93-1.62-1.8-4.05ZM94,90A41.07,41.07,0,0,1,98,84.56c-2.88-2.49-5.64,2.3-6.31,5C93,89.15,92.9,90.16,94,90ZM21,201.25c-.21,1.42.56,1.84,1.35,2.25C23.25,202.63,22.84,200.74,21,201.25Zm22.52,72.54c2.19,1.77-.64,3.24,1.35,5,.07-.53-.08-1.28.45-1.35.34,2.17,2.18,3.14,1.8,5.41,1.71-.66.09,2,1.8,1.35C48.4,279,48.85,275.2,43.54,273.78Zm176.09,54.07c-.39.15-.75.31-1.13.47a1.63,1.63,0,0,0-1.37.58c-2.95,1.34-5.7,2.86-8.68,3.94l-.08,0v.06a20.89,20.89,0,0,1-6.31,1.3c-1.24-1.21-2.46-3.07-4-3.6-3.69-1.23-7.23.69-11.26.9-3.43.18-8.78-2-14-1.8-5.94.19-10.2-.34-14.86,0-1.56-1.74-5-1.58-7.2-2.7-.7.8-2.7.3-3.15,1.35-13.94-3.2-25-4.7-39.63-2.25-.48,7.33,4,9.53,9.46,13.07,2.82,1.84,5.64,1.93,9,3.15,2.81,1,5,2.85,7.66,3.15,5.72.66,9.06,1.46,12.16.45,4.78,2.47,15.13.12,20.27,0,.16,0,.6.91,1.35.9,10.54-.07,21.14-4.73,30.62-7.21,4.14-1.08,7.48-1.59,10.36-4.06a7,7,0,0,0,4.5-.45,13.26,13.26,0,0,0,5.61-4.75l.7-.2a1.49,1.49,0,0,0-.08-1.21A2.88,2.88,0,0,0,219.63,327.85ZM83.17,100.33c4.09-1.17,3.34-7.17,8.11-7.66.07-1.43,0-2.72-.9-3.15-.79,2.67-4.31,2.59-4.05,6.31C84,96.14,82.08,98,83.17,100.33ZM112,142.23c2.19.24.93-3,1.8-4.05h-2.7c-.31,2.11,1.5,2.11,1.8,3.6C112.54,141.88,112,141.79,112,142.23Zm-4.05-15.77v1.35c2.65,1,5.18,1.88,7.66.45C115.39,123.72,110.21,127.77,107.94,126.46Zm-32,44.6a2.93,2.93,0,0,0-.45,2.25C77.17,173.75,77.31,171.1,76,171.06ZM27.78,227.83a3.93,3.93,0,0,1-3.6-1.35c-3.05,3.79.72,7.68,2.25,10.81C27,233.72,29.87,231.64,27.78,227.83Zm.9-53.16c1.42-1.55-1-2-.45-4.05C25.62,171,25.48,174.75,28.68,174.67Zm55.85-38.75c.79,2.21,2,2,4.05,2.25C87.92,136.84,86.06,134.94,84.52,135.92ZM41.29,270.63c-.19,0-1.31,3.38.9,3.15C41.58,272,42.91,271,41.29,270.63Zm-5-127.05c-.26-1.46.31-2.1.45-3.15-1.32,0-1.68,1-2.25,1.8C36,141.83,35.15,143.72,36.33,143.58ZM29.58,245.85c.45-1.21.64-2.67,1.35-3.6-.14-1.49-1.39,1.76-1.8,0-.22-1.42,2.23-.17,1.8-1.8-2.53-.43-2.95,1.26-4.5,1.8.67.08.41,1.09.45,1.8C28.86,243.57,27.93,246,29.58,245.85ZM41.29,267c-.87-2.62-3.51-4.48-3.6-9-2.36.66-1.69.66-4.05,0,2.11,4.2,2.13,10.49,6.31,12.62,0-1.2.17-2.58-.45-3.15C40.16,267.4,41.15,267.64,41.29,267ZM35,257.12c.41-5-.55-6.7-1.8-10.81-6.58-2.1-6,5.38-1.8,7.21v3.16c1.23-.33.91.89,1.8.9C32.39,255.17,33.61,256.94,35,257.12Zm9-129.3c-2.22-.14-5.5,4.58-4.5,7.66C42.28,134.21,43.61,131.49,44,127.81Zm45.49,36.94c.82,1.23,3.11,1.5,2.25,3.16a6.8,6.8,0,0,0,3.15,0c-1-2.3.42-2.23.45-4.51C93.14,164.19,90.15,163.48,89.48,164.75Zm.9-4.05c.16-1.81-2.11-1.19-2.7-2.25.33,1.39-1.24.87-.9,2.25,1.85,1.42,0,2.5-.45,4.05,1.88-.23.17,3.13,2.25,2.7.31-2.27.13-2.24.9-4.06-.42-.48-1.66-.14-1.35-1.35C88.8,161.53,89.23,160.75,90.38,160.7ZM55.25,173.32a11.11,11.11,0,0,0,.45,11.26C55.37,181.93,60,175.17,55.25,173.32ZM95.33,144c-2-.37-2.43-1.59-3.6-3.6-.67,1.15,0,5.94-1.8,4.5.35-.1.53-.38.45-.9a2.12,2.12,0,0,1-1.35-.45c.84,2.8-1.71,2.2-1.8,4.06,1.08.58,2.44.86,2.7,2.25a19.6,19.6,0,0,0,5.41-5Zm-10.81,7.66c-1.7.19-2.05-.95-2.7-1.8,0-1.43,1.09-2.29-.45-3.15-1.75,3.84-2,10.18-5,10.36-3,2.73.69,5.12,0,7.66,1.48-.76,2,.24,3.15.9-.31-2.41,3.23-1,4.05-2.25.36-1.56-.5-1.9-.9-2.7C85.67,158.77,84,155.07,84.52,151.69Zm-1.8-10.36c.28,1.37-.58,3.88.45,4.51,0-.28.07-.53.45-.45,0,.25.37.51.45,0-1.55-1,.88-1.78,1.8-1.8A2.55,2.55,0,0,0,82.72,141.33Zm0-38.3c-.7-.5-.94-1.46-2.25-1.35-1.62,1.68-2.44,4.17-2.7,7.21C80.77,108.29,81.61,105.53,82.72,103Z" transform="translate(0 -16.01)"/></g></g></svg>